<svg width="204" height="204" viewBox="0 0 204 204" fill="none" xmlns="http://www.w3.org/2000/svg">
<path d="M0 22.6143H204V184C204 195.046 195.046 204 184 204H20C8.9543 204 0 195.046 0 184V22.6143Z" fill="#F8F8F8"/>
<path d="M0 20C0 8.95431 8.95431 0 20 0H184C195.046 0 204 8.95431 204 20V22.6143H0V20Z" fill="#1DAA6A"/>
<path d="M102 144.562C130.477 144.562 153.562 121.477 153.562 93C153.562 64.5228 130.477 41.4375 102 41.4375C73.5228 41.4375 50.4375 64.5228 50.4375 93C50.4375 121.477 73.5228 144.562 102 144.562Z" fill="#1FAA6A"/>
<path d="M117.469 65.5H86.5312C83.6835 65.5 81.375 67.8085 81.375 70.6562V115.344C81.375 118.191 83.6835 120.5 86.5312 120.5H117.469C120.316 120.5 122.625 118.191 122.625 115.344V70.6562C122.625 67.8085 120.316 65.5 117.469 65.5Z" fill="#E0E0E0" stroke="#555555" stroke-width="1.5"/>
<path d="M108.875 58.625H95.125C93.2265 58.625 91.6875 60.164 91.6875 62.0625V65.5C91.6875 67.3985 93.2265 68.9375 95.125 68.9375H108.875C110.773 68.9375 112.312 67.3985 112.312 65.5V62.0625C112.312 60.164 110.773 58.625 108.875 58.625Z" fill="#555555"/>
<path d="M114.031 82.6875H89.9688C89.0195 82.6875 88.25 83.457 88.25 84.4062V86.125C88.25 87.0742 89.0195 87.8438 89.9688 87.8438H114.031C114.98 87.8438 115.75 87.0742 115.75 86.125V84.4062C115.75 83.457 114.98 82.6875 114.031 82.6875Z" fill="#999999"/>
<path d="M110.594 93H89.9688C89.0195 93 88.25 93.7695 88.25 94.7188V96.4375C88.25 97.3867 89.0195 98.1562 89.9688 98.1562H110.594C111.543 98.1562 112.312 97.3867 112.312 96.4375V94.7188C112.312 93.7695 111.543 93 110.594 93Z" fill="#999999"/>
<path d="M103.719 103.312H89.9688C89.0195 103.312 88.25 104.082 88.25 105.031V106.75C88.25 107.699 89.0195 108.469 89.9688 108.469H103.719C104.668 108.469 105.438 107.699 105.438 106.75V105.031C105.438 104.082 104.668 103.312 103.719 103.312Z" fill="#999999"/>
<path d="M84.8125 87.8438C86.2364 87.8438 87.3906 86.6895 87.3906 85.2656C87.3906 83.8418 86.2364 82.6875 84.8125 82.6875C83.3886 82.6875 82.2344 83.8418 82.2344 85.2656C82.2344 86.6895 83.3886 87.8438 84.8125 87.8438Z" fill="#4CAF50"/>
<path d="M84.8125 98.1562C86.2364 98.1562 87.3906 97.002 87.3906 95.5781C87.3906 94.1543 86.2364 93 84.8125 93C83.3886 93 82.2344 94.1543 82.2344 95.5781C82.2344 97.002 83.3886 98.1562 84.8125 98.1562Z" fill="#4CAF50"/>
<path d="M84.8125 108.469C86.2364 108.469 87.3906 107.314 87.3906 105.891C87.3906 104.467 86.2364 103.312 84.8125 103.312C83.3886 103.312 82.2344 104.467 82.2344 105.891C82.2344 107.314 83.3886 108.469 84.8125 108.469Z" fill="#4CAF50"/>
<path d="M102 144.562C130.477 144.562 153.562 121.477 153.562 93C153.562 64.5228 130.477 41.4375 102 41.4375C73.5228 41.4375 50.4375 64.5228 50.4375 93C50.4375 121.477 73.5228 144.562 102 144.562Z" fill="#1FAA6A"/>
<path d="M117.469 65.5H86.5312C83.6835 65.5 81.375 67.8085 81.375 70.6562V115.344C81.375 118.191 83.6835 120.5 86.5312 120.5H117.469C120.316 120.5 122.625 118.191 122.625 115.344V70.6562C122.625 67.8085 120.316 65.5 117.469 65.5Z" fill="#E0E0E0" stroke="#555555" stroke-width="1.5"/>
<path d="M108.875 58.625H95.125C93.2265 58.625 91.6875 60.164 91.6875 62.0625V65.5C91.6875 67.3985 93.2265 68.9375 95.125 68.9375H108.875C110.773 68.9375 112.312 67.3985 112.312 65.5V62.0625C112.312 60.164 110.773 58.625 108.875 58.625Z" fill="#555555"/>
<path d="M114.031 82.6875H89.9688C89.0195 82.6875 88.25 83.457 88.25 84.4062V86.125C88.25 87.0742 89.0195 87.8438 89.9688 87.8438H114.031C114.98 87.8438 115.75 87.0742 115.75 86.125V84.4062C115.75 83.457 114.98 82.6875 114.031 82.6875Z" fill="#999999"/>
<path d="M110.594 93H89.9688C89.0195 93 88.25 93.7695 88.25 94.7188V96.4375C88.25 97.3867 89.0195 98.1562 89.9688 98.1562H110.594C111.543 98.1562 112.312 97.3867 112.312 96.4375V94.7188C112.312 93.7695 111.543 93 110.594 93Z" fill="#999999"/>
<path d="M103.719 103.312H89.9688C89.0195 103.312 88.25 104.082 88.25 105.031V106.75C88.25 107.699 89.0195 108.469 89.9688 108.469H103.719C104.668 108.469 105.438 107.699 105.438 106.75V105.031C105.438 104.082 104.668 103.312 103.719 103.312Z" fill="#999999"/>
<path d="M84.8125 87.8438C86.2364 87.8438 87.3906 86.6895 87.3906 85.2656C87.3906 83.8418 86.2364 82.6875 84.8125 82.6875C83.3886 82.6875 82.2344 83.8418 82.2344 85.2656C82.2344 86.6895 83.3886 87.8438 84.8125 87.8438Z" fill="#4CAF50"/>
<path d="M84.8125 98.1562C86.2364 98.1562 87.3906 97.002 87.3906 95.5781C87.3906 94.1543 86.2364 93 84.8125 93C83.3886 93 82.2344 94.1543 82.2344 95.5781C82.2344 97.002 83.3886 98.1562 84.8125 98.1562Z" fill="#4CAF50"/>
<path d="M84.8125 108.469C86.2364 108.469 87.3906 107.314 87.3906 105.891C87.3906 104.467 86.2364 103.312 84.8125 103.312C83.3886 103.312 82.2344 104.467 82.2344 105.891C82.2344 107.314 83.3886 108.469 84.8125 108.469Z" fill="#4CAF50"/>
<path d="M67.867 159.727C67.867 161.313 67.5663 162.663 66.965 163.776C66.3684 164.888 65.554 165.738 64.5218 166.325C63.4944 166.908 62.3391 167.199 61.0559 167.199C59.7633 167.199 58.6033 166.905 57.5758 166.318C56.5484 165.731 55.7363 164.881 55.1397 163.768C54.5431 162.656 54.2449 161.309 54.2449 159.727C54.2449 158.141 54.5431 156.792 55.1397 155.679C55.7363 154.566 56.5484 153.719 57.5758 153.136C58.6033 152.549 59.7633 152.256 61.0559 152.256C62.3391 152.256 63.4944 152.549 64.5218 153.136C65.554 153.719 66.3684 154.566 66.965 155.679C67.5663 156.792 67.867 158.141 67.867 159.727ZM64.7491 159.727C64.7491 158.7 64.5952 157.833 64.2875 157.128C63.9844 156.422 63.5559 155.887 63.002 155.523C62.448 155.158 61.7993 154.976 61.0559 154.976C60.3126 154.976 59.6639 155.158 59.1099 155.523C58.5559 155.887 58.1251 156.422 57.8173 157.128C57.5143 157.833 57.3627 158.7 57.3627 159.727C57.3627 160.755 57.5143 161.621 57.8173 162.327C58.1251 163.032 58.5559 163.567 59.1099 163.932C59.6639 164.296 60.3126 164.479 61.0559 164.479C61.7993 164.479 62.448 164.296 63.002 163.932C63.5559 163.567 63.9844 163.032 64.2875 162.327C64.5952 161.621 64.7491 160.755 64.7491 159.727ZM70.0882 167V156.091H73.0215V157.994H73.1351C73.334 157.317 73.6678 156.806 74.1365 156.46C74.6053 156.11 75.1451 155.935 75.7559 155.935C75.9074 155.935 76.0707 155.944 76.2459 155.963C76.4211 155.982 76.575 156.008 76.7076 156.041V158.726C76.5655 158.683 76.369 158.645 76.1181 158.612C75.8671 158.579 75.6375 158.562 75.4292 158.562C74.9841 158.562 74.5864 158.66 74.236 158.854C73.8903 159.043 73.6157 159.308 73.4121 159.649C73.2132 159.99 73.1138 160.383 73.1138 160.828V167H70.0882ZM81.7839 167.178C80.9553 167.178 80.2048 166.964 79.5325 166.538C78.8649 166.107 78.3346 165.475 77.9416 164.642C77.5533 163.804 77.3592 162.777 77.3592 161.56C77.3592 160.31 77.5604 159.27 77.9629 158.442C78.3654 157.608 78.9004 156.986 79.568 156.574C80.2404 156.157 80.9766 155.949 81.7768 155.949C82.3876 155.949 82.8966 156.053 83.3038 156.261C83.7157 156.465 84.0472 156.721 84.2981 157.028C84.5538 157.331 84.7479 157.63 84.8805 157.923H84.9728V152.455H87.9913V167H85.0083V165.253H84.8805C84.7385 165.556 84.5372 165.857 84.2768 166.155C84.0211 166.448 83.6873 166.692 83.2754 166.886C82.8682 167.08 82.371 167.178 81.7839 167.178ZM82.7427 164.77C83.2304 164.77 83.6423 164.637 83.9785 164.372C84.3194 164.102 84.5798 163.726 84.7598 163.243C84.9444 162.76 85.0368 162.194 85.0368 161.545C85.0368 160.897 84.9468 160.333 84.7669 159.855C84.5869 159.377 84.3265 159.008 83.9856 158.747C83.6447 158.487 83.2304 158.357 82.7427 158.357C82.2456 158.357 81.8265 158.491 81.4856 158.761C81.1447 159.031 80.8867 159.405 80.7115 159.884C80.5363 160.362 80.4487 160.916 80.4487 161.545C80.4487 162.18 80.5363 162.741 80.7115 163.229C80.8914 163.712 81.1494 164.09 81.4856 164.365C81.8265 164.635 82.2456 164.77 82.7427 164.77ZM95.4505 167.213C94.3283 167.213 93.3624 166.986 92.5527 166.531C91.7478 166.072 91.1275 165.423 90.6919 164.585C90.2563 163.742 90.0385 162.746 90.0385 161.595C90.0385 160.473 90.2563 159.488 90.6919 158.641C91.1275 157.793 91.7407 157.133 92.5314 156.659C93.3269 156.186 94.2596 155.949 95.3297 155.949C96.0494 155.949 96.7194 156.065 97.3397 156.297C97.9647 156.524 98.5092 156.867 98.9732 157.327C99.4419 157.786 99.8065 158.364 100.067 159.06C100.327 159.751 100.458 160.561 100.458 161.489V162.32H91.2459V160.445H97.6096C97.6096 160.009 97.5149 159.623 97.3255 159.287C97.1361 158.951 96.8733 158.688 96.5371 158.499C96.2057 158.304 95.8198 158.207 95.3794 158.207C94.9202 158.207 94.513 158.314 94.1578 158.527C93.8075 158.735 93.5328 159.017 93.334 159.372C93.1351 159.723 93.0333 160.113 93.0286 160.544V162.327C93.0286 162.866 93.128 163.333 93.3269 163.726C93.5305 164.119 93.8169 164.422 94.1863 164.635C94.5556 164.848 94.9935 164.955 95.5002 164.955C95.8364 164.955 96.1441 164.907 96.4235 164.812C96.7028 164.718 96.9419 164.576 97.1408 164.386C97.3397 164.197 97.4912 163.965 97.5953 163.69L100.394 163.875C100.252 164.547 99.9604 165.134 99.5201 165.636C99.0845 166.134 98.521 166.522 97.8297 166.801C97.1432 167.076 96.3501 167.213 95.4505 167.213ZM102.432 167V156.091H105.316V158.016H105.443C105.671 157.376 106.049 156.872 106.58 156.503C107.11 156.134 107.744 155.949 108.483 155.949C109.231 155.949 109.868 156.136 110.394 156.51C110.919 156.879 111.27 157.381 111.445 158.016H111.558C111.781 157.391 112.183 156.891 112.766 156.517C113.353 156.138 114.047 155.949 114.847 155.949C115.865 155.949 116.691 156.273 117.325 156.922C117.965 157.566 118.284 158.48 118.284 159.663V167H115.266V160.26C115.266 159.654 115.105 159.199 114.783 158.896C114.461 158.593 114.058 158.442 113.575 158.442C113.026 158.442 112.598 158.617 112.29 158.967C111.982 159.313 111.828 159.77 111.828 160.338V167H108.895V160.196C108.895 159.661 108.741 159.235 108.433 158.918C108.13 158.6 107.73 158.442 107.233 158.442C106.897 158.442 106.594 158.527 106.324 158.697C106.059 158.863 105.848 159.098 105.692 159.401C105.536 159.699 105.458 160.049 105.458 160.452V167H102.432ZM129.323 167.178C128.494 167.178 127.744 166.964 127.072 166.538C126.404 166.107 125.874 165.475 125.481 164.642C125.092 163.804 124.898 162.777 124.898 161.56C124.898 160.31 125.099 159.27 125.502 158.442C125.904 157.608 126.439 156.986 127.107 156.574C127.779 156.157 128.516 155.949 129.316 155.949C129.927 155.949 130.436 156.053 130.843 156.261C131.255 156.465 131.586 156.721 131.837 157.028C132.093 157.331 132.287 157.63 132.42 157.923H132.512V152.455H135.53V167H132.547V165.253H132.42C132.278 165.556 132.076 165.857 131.816 166.155C131.56 166.448 131.226 166.692 130.814 166.886C130.407 167.08 129.91 167.178 129.323 167.178ZM130.282 164.77C130.769 164.77 131.181 164.637 131.518 164.372C131.858 164.102 132.119 163.726 132.299 163.243C132.483 162.76 132.576 162.194 132.576 161.545C132.576 160.897 132.486 160.333 132.306 159.855C132.126 159.377 131.866 159.008 131.525 158.747C131.184 158.487 130.769 158.357 130.282 158.357C129.785 158.357 129.366 158.491 129.025 158.761C128.684 159.031 128.426 159.405 128.251 159.884C128.075 160.362 127.988 160.916 127.988 161.545C127.988 162.18 128.075 162.741 128.251 163.229C128.43 163.712 128.689 164.09 129.025 164.365C129.366 164.635 129.785 164.77 130.282 164.77ZM142.99 167.213C141.867 167.213 140.901 166.986 140.092 166.531C139.287 166.072 138.667 165.423 138.231 164.585C137.795 163.742 137.578 162.746 137.578 161.595C137.578 160.473 137.795 159.488 138.231 158.641C138.667 157.793 139.28 157.133 140.07 156.659C140.866 156.186 141.799 155.949 142.869 155.949C143.588 155.949 144.258 156.065 144.879 156.297C145.504 156.524 146.048 156.867 146.512 157.327C146.981 157.786 147.346 158.364 147.606 159.06C147.866 159.751 147.997 160.561 147.997 161.489V162.32H138.785V160.445H145.149C145.149 160.009 145.054 159.623 144.865 159.287C144.675 158.951 144.412 158.688 144.076 158.499C143.745 158.304 143.359 158.207 142.919 158.207C142.459 158.207 142.052 158.314 141.697 158.527C141.347 158.735 141.072 159.017 140.873 159.372C140.674 159.723 140.572 160.113 140.568 160.544V162.327C140.568 162.866 140.667 163.333 140.866 163.726C141.07 164.119 141.356 164.422 141.725 164.635C142.095 164.848 142.533 164.955 143.039 164.955C143.375 164.955 143.683 164.907 143.963 164.812C144.242 164.718 144.481 164.576 144.68 164.386C144.879 164.197 145.03 163.965 145.134 163.69L147.933 163.875C147.791 164.547 147.499 165.134 147.059 165.636C146.624 166.134 146.06 166.522 145.369 166.801C144.682 167.076 143.889 167.213 142.99 167.213ZM72.7818 180.638C72.725 180.065 72.4811 179.62 72.0502 179.303C71.6194 178.985 71.0346 178.827 70.296 178.827C69.7941 178.827 69.3703 178.898 69.0247 179.04C68.679 179.177 68.4139 179.369 68.2292 179.615C68.0493 179.861 67.9593 180.141 67.9593 180.453C67.9499 180.714 68.0043 180.941 68.1227 181.135C68.2458 181.329 68.4139 181.497 68.627 181.639C68.84 181.777 69.0862 181.897 69.3656 182.001C69.6449 182.101 69.9432 182.186 70.2605 182.257L71.5673 182.57C72.2018 182.712 72.7842 182.901 73.3145 183.138C73.8448 183.375 74.304 183.666 74.6923 184.011C75.0806 184.357 75.3812 184.764 75.5943 185.233C75.8121 185.702 75.9234 186.239 75.9281 186.845C75.9234 187.735 75.6961 188.507 75.2463 189.161C74.8012 189.809 74.1573 190.313 73.3145 190.673C72.4764 191.028 71.4655 191.206 70.2818 191.206C69.1075 191.206 68.0848 191.026 67.2136 190.666C66.3471 190.306 65.67 189.774 65.1824 189.068C64.6994 188.358 64.4461 187.48 64.4224 186.433H67.3983C67.4314 186.921 67.5711 187.328 67.8173 187.655C68.0682 187.977 68.402 188.221 68.8187 188.386C69.2401 188.547 69.716 188.628 70.2463 188.628C70.7671 188.628 71.2193 188.552 71.6028 188.401C71.9911 188.249 72.2917 188.038 72.5048 187.768C72.7179 187.499 72.8244 187.188 72.8244 186.838C72.8244 186.511 72.7273 186.237 72.5332 186.014C72.3438 185.792 72.0645 185.602 71.6951 185.446C71.3306 185.29 70.8831 185.148 70.3528 185.02L68.769 184.622C67.5427 184.324 66.5744 183.857 65.8642 183.223C65.1539 182.589 64.8012 181.734 64.8059 180.659C64.8012 179.778 65.0356 179.009 65.5091 178.351C65.9873 177.693 66.6431 177.179 67.4764 176.81C68.3097 176.44 69.2567 176.256 70.3173 176.256C71.3968 176.256 72.3391 176.44 73.144 176.81C73.9537 177.179 74.5834 177.693 75.0332 178.351C75.483 179.009 75.715 179.771 75.7292 180.638H72.7818ZM82.9114 191.213C81.7892 191.213 80.8233 190.986 80.0137 190.531C79.2087 190.072 78.5885 189.423 78.1529 188.585C77.7173 187.742 77.4995 186.746 77.4995 185.595C77.4995 184.473 77.7173 183.488 78.1529 182.641C78.5885 181.793 79.2016 181.133 79.9924 180.659C80.7878 180.186 81.7206 179.949 82.7907 179.949C83.5104 179.949 84.1803 180.065 84.8006 180.297C85.4256 180.524 85.9701 180.867 86.4341 181.327C86.9029 181.786 87.2675 182.364 87.5279 183.06C87.7883 183.751 87.9185 184.561 87.9185 185.489V186.32H78.7069V184.445H85.0705C85.0705 184.009 84.9758 183.623 84.7864 183.287C84.597 182.951 84.3342 182.688 83.998 182.499C83.6666 182.304 83.2807 182.207 82.8404 182.207C82.3811 182.207 81.9739 182.314 81.6188 182.527C81.2684 182.735 80.9938 183.017 80.7949 183.372C80.5961 183.723 80.4943 184.113 80.4895 184.544V186.327C80.4895 186.866 80.589 187.333 80.7878 187.726C80.9914 188.119 81.2779 188.422 81.6472 188.635C82.0165 188.848 82.4545 188.955 82.9611 188.955C83.2973 188.955 83.6051 188.907 83.8844 188.812C84.1638 188.718 84.4029 188.576 84.6017 188.386C84.8006 188.197 84.9521 187.965 85.0563 187.69L87.8546 187.875C87.7125 188.547 87.4213 189.134 86.981 189.636C86.5454 190.134 85.9819 190.522 85.2907 190.801C84.6041 191.076 83.811 191.213 82.9114 191.213ZM89.8929 191V180.091H92.8262V181.994H92.9398C93.1387 181.317 93.4725 180.806 93.9412 180.46C94.41 180.11 94.9498 179.935 95.5605 179.935C95.7121 179.935 95.8754 179.944 96.0506 179.963C96.2258 179.982 96.3797 180.008 96.5123 180.041V182.726C96.3702 182.683 96.1737 182.645 95.9228 182.612C95.6718 182.579 95.4422 182.562 95.2338 182.562C94.7888 182.562 94.391 182.66 94.0407 182.854C93.695 183.043 93.4204 183.308 93.2168 183.649C93.0179 183.99 92.9185 184.383 92.9185 184.828V191H89.8929ZM108.579 180.091L104.765 191H101.356L97.5421 180.091H100.738L103.004 187.896H103.117L105.376 180.091H108.579ZM110.127 191V180.091H113.153V191H110.127ZM111.647 178.685C111.197 178.685 110.811 178.536 110.49 178.237C110.172 177.934 110.014 177.572 110.014 177.151C110.014 176.734 110.172 176.376 110.49 176.078C110.811 175.775 111.197 175.624 111.647 175.624C112.097 175.624 112.481 175.775 112.798 176.078C113.12 176.376 113.281 176.734 113.281 177.151C113.281 177.572 113.12 177.934 112.798 178.237C112.481 178.536 112.097 178.685 111.647 178.685ZM120.506 191.213C119.388 191.213 118.427 190.976 117.622 190.503C116.822 190.025 116.206 189.362 115.775 188.514C115.349 187.667 115.136 186.691 115.136 185.588C115.136 184.471 115.352 183.491 115.782 182.648C116.218 181.8 116.836 181.14 117.636 180.666C118.436 180.188 119.388 179.949 120.491 179.949C121.443 179.949 122.276 180.122 122.991 180.467C123.706 180.813 124.272 181.298 124.689 181.923C125.105 182.548 125.335 183.282 125.378 184.125H122.523C122.442 183.58 122.229 183.143 121.883 182.811C121.542 182.475 121.095 182.307 120.541 182.307C120.072 182.307 119.663 182.435 119.312 182.69C118.967 182.941 118.697 183.308 118.503 183.791C118.309 184.274 118.211 184.859 118.211 185.545C118.211 186.241 118.306 186.833 118.496 187.321C118.69 187.809 118.962 188.18 119.312 188.436C119.663 188.692 120.072 188.82 120.541 188.82C120.887 188.82 121.197 188.749 121.471 188.607C121.751 188.464 121.98 188.259 122.16 187.989C122.345 187.714 122.466 187.385 122.523 187.001H125.378C125.33 187.835 125.103 188.569 124.696 189.203C124.293 189.833 123.737 190.325 123.027 190.68C122.317 191.036 121.476 191.213 120.506 191.213ZM119.795 190.943H121.187L121.074 191.561C121.561 191.637 121.959 191.819 122.267 192.108C122.579 192.397 122.738 192.79 122.743 193.287C122.747 193.992 122.421 194.554 121.763 194.97C121.104 195.392 120.181 195.602 118.993 195.602L118.964 194.253C119.561 194.253 120.027 194.179 120.363 194.033C120.704 193.891 120.882 193.668 120.896 193.365C120.906 193.076 120.794 192.856 120.562 192.705C120.33 192.553 119.968 192.446 119.476 192.385L119.795 190.943ZM132.244 191.213C131.141 191.213 130.186 190.979 129.382 190.51C128.581 190.036 127.963 189.378 127.528 188.536C127.092 187.688 126.874 186.705 126.874 185.588C126.874 184.461 127.092 183.476 127.528 182.634C127.963 181.786 128.581 181.128 129.382 180.659C130.186 180.186 131.141 179.949 132.244 179.949C133.347 179.949 134.299 180.186 135.099 180.659C135.904 181.128 136.524 181.786 136.96 182.634C137.395 183.476 137.613 184.461 137.613 185.588C137.613 186.705 137.395 187.688 136.96 188.536C136.524 189.378 135.904 190.036 135.099 190.51C134.299 190.979 133.347 191.213 132.244 191.213ZM132.258 188.869C132.76 188.869 133.179 188.727 133.515 188.443C133.851 188.154 134.105 187.761 134.275 187.264C134.45 186.767 134.538 186.201 134.538 185.567C134.538 184.932 134.45 184.366 134.275 183.869C134.105 183.372 133.851 182.979 133.515 182.69C133.179 182.402 132.76 182.257 132.258 182.257C131.751 182.257 131.325 182.402 130.98 182.69C130.639 182.979 130.381 183.372 130.205 183.869C130.035 184.366 129.95 184.932 129.95 185.567C129.95 186.201 130.035 186.767 130.205 187.264C130.381 187.761 130.639 188.154 130.98 188.443C131.325 188.727 131.751 188.869 132.258 188.869Z" fill="#3E668A"/>
</svg>
