<svg width="204" height="214" viewBox="0 0 204 214" fill="none" xmlns="http://www.w3.org/2000/svg">
<path d="M0 22.6143H204V184C204 195.046 195.046 204 184 204H20C8.9543 204 0 195.046 0 184V22.6143Z" fill="#F8F8F8"/>
<path d="M0 20C0 8.95431 8.95431 0 20 0H184C195.046 0 204 8.95431 204 20V22.6143H0V20Z" fill="#1DAA6A"/>
<path d="M102 144.562C130.477 144.562 153.562 121.477 153.562 93C153.562 64.5228 130.477 41.4375 102 41.4375C73.5228 41.4375 50.4375 64.5228 50.4375 93C50.4375 121.477 73.5228 144.562 102 144.562Z" fill="#1FAA6A"/>
<path d="M117.469 65.5H86.5312C83.6835 65.5 81.375 67.8085 81.375 70.6562V115.344C81.375 118.191 83.6835 120.5 86.5312 120.5H117.469C120.316 120.5 122.625 118.191 122.625 115.344V70.6562C122.625 67.8085 120.316 65.5 117.469 65.5Z" fill="#E0E0E0" stroke="#555555" stroke-width="1.5"/>
<path d="M108.875 58.625H95.125C93.2265 58.625 91.6875 60.164 91.6875 62.0625V65.5C91.6875 67.3985 93.2265 68.9375 95.125 68.9375H108.875C110.773 68.9375 112.312 67.3985 112.312 65.5V62.0625C112.312 60.164 110.773 58.625 108.875 58.625Z" fill="#555555"/>
<path d="M114.031 82.6875H89.9688C89.0195 82.6875 88.25 83.457 88.25 84.4062V86.125C88.25 87.0742 89.0195 87.8438 89.9688 87.8438H114.031C114.98 87.8438 115.75 87.0742 115.75 86.125V84.4062C115.75 83.457 114.98 82.6875 114.031 82.6875Z" fill="#999999"/>
<path d="M110.594 93H89.9688C89.0195 93 88.25 93.7695 88.25 94.7188V96.4375C88.25 97.3867 89.0195 98.1562 89.9688 98.1562H110.594C111.543 98.1562 112.312 97.3867 112.312 96.4375V94.7188C112.312 93.7695 111.543 93 110.594 93Z" fill="#999999"/>
<path d="M103.719 103.312H89.9688C89.0195 103.312 88.25 104.082 88.25 105.031V106.75C88.25 107.699 89.0195 108.469 89.9688 108.469H103.719C104.668 108.469 105.438 107.699 105.438 106.75V105.031C105.438 104.082 104.668 103.312 103.719 103.312Z" fill="#999999"/>
<path d="M84.8125 87.8438C86.2364 87.8438 87.3906 86.6895 87.3906 85.2656C87.3906 83.8418 86.2364 82.6875 84.8125 82.6875C83.3886 82.6875 82.2344 83.8418 82.2344 85.2656C82.2344 86.6895 83.3886 87.8438 84.8125 87.8438Z" fill="#4CAF50"/>
<path d="M84.8125 98.1562C86.2364 98.1562 87.3906 97.002 87.3906 95.5781C87.3906 94.1543 86.2364 93 84.8125 93C83.3886 93 82.2344 94.1543 82.2344 95.5781C82.2344 97.002 83.3886 98.1562 84.8125 98.1562Z" fill="#4CAF50"/>
<path d="M84.8125 108.469C86.2364 108.469 87.3906 107.314 87.3906 105.891C87.3906 104.467 86.2364 103.312 84.8125 103.312C83.3886 103.312 82.2344 104.467 82.2344 105.891C82.2344 107.314 83.3886 108.469 84.8125 108.469Z" fill="#4CAF50"/>
<path d="M102 144.562C130.477 144.562 153.562 121.477 153.562 93C153.562 64.5228 130.477 41.4375 102 41.4375C73.5228 41.4375 50.4375 64.5228 50.4375 93C50.4375 121.477 73.5228 144.562 102 144.562Z" fill="#1FAA6A"/>
<path d="M117.469 65.5H86.5312C83.6835 65.5 81.375 67.8085 81.375 70.6562V115.344C81.375 118.191 83.6835 120.5 86.5312 120.5H117.469C120.316 120.5 122.625 118.191 122.625 115.344V70.6562C122.625 67.8085 120.316 65.5 117.469 65.5Z" fill="#E0E0E0" stroke="#555555" stroke-width="1.5"/>
<path d="M108.875 58.625H95.125C93.2265 58.625 91.6875 60.164 91.6875 62.0625V65.5C91.6875 67.3985 93.2265 68.9375 95.125 68.9375H108.875C110.773 68.9375 112.312 67.3985 112.312 65.5V62.0625C112.312 60.164 110.773 58.625 108.875 58.625Z" fill="#555555"/>
<path d="M114.031 82.6875H89.9688C89.0195 82.6875 88.25 83.457 88.25 84.4062V86.125C88.25 87.0742 89.0195 87.8438 89.9688 87.8438H114.031C114.98 87.8438 115.75 87.0742 115.75 86.125V84.4062C115.75 83.457 114.98 82.6875 114.031 82.6875Z" fill="#999999"/>
<path d="M110.594 93H89.9688C89.0195 93 88.25 93.7695 88.25 94.7188V96.4375C88.25 97.3867 89.0195 98.1562 89.9688 98.1562H110.594C111.543 98.1562 112.312 97.3867 112.312 96.4375V94.7188C112.312 93.7695 111.543 93 110.594 93Z" fill="#999999"/>
<path d="M103.719 103.312H89.9688C89.0195 103.312 88.25 104.082 88.25 105.031V106.75C88.25 107.699 89.0195 108.469 89.9688 108.469H103.719C104.668 108.469 105.438 107.699 105.438 106.75V105.031C105.438 104.082 104.668 103.312 103.719 103.312Z" fill="#999999"/>
<path d="M84.8125 87.8438C86.2364 87.8438 87.3906 86.6895 87.3906 85.2656C87.3906 83.8418 86.2364 82.6875 84.8125 82.6875C83.3886 82.6875 82.2344 83.8418 82.2344 85.2656C82.2344 86.6895 83.3886 87.8438 84.8125 87.8438Z" fill="#4CAF50"/>
<path d="M84.8125 98.1562C86.2364 98.1562 87.3906 97.002 87.3906 95.5781C87.3906 94.1543 86.2364 93 84.8125 93C83.3886 93 82.2344 94.1543 82.2344 95.5781C82.2344 97.002 83.3886 98.1562 84.8125 98.1562Z" fill="#4CAF50"/>
<path d="M84.8125 108.469C86.2364 108.469 87.3906 107.314 87.3906 105.891C87.3906 104.467 86.2364 103.312 84.8125 103.312C83.3886 103.312 82.2344 104.467 82.2344 105.891C82.2344 107.314 83.3886 108.469 84.8125 108.469Z" fill="#4CAF50"/>
<path d="M68.867 159.727C68.867 161.313 68.5663 162.663 67.965 163.776C67.3684 164.888 66.554 165.738 65.5218 166.325C64.4944 166.908 63.3391 167.199 62.0559 167.199C60.7633 167.199 59.6033 166.905 58.5758 166.318C57.5484 165.731 56.7363 164.881 56.1397 163.768C55.5431 162.656 55.2449 161.309 55.2449 159.727C55.2449 158.141 55.5431 156.792 56.1397 155.679C56.7363 154.566 57.5484 153.719 58.5758 153.136C59.6033 152.549 60.7633 152.256 62.0559 152.256C63.3391 152.256 64.4944 152.549 65.5218 153.136C66.554 153.719 67.3684 154.566 67.965 155.679C68.5663 156.792 68.867 158.141 68.867 159.727ZM65.7491 159.727C65.7491 158.7 65.5952 157.833 65.2875 157.128C64.9844 156.422 64.5559 155.887 64.002 155.523C63.448 155.158 62.7993 154.976 62.0559 154.976C61.3126 154.976 60.6639 155.158 60.1099 155.523C59.5559 155.887 59.1251 156.422 58.8173 157.128C58.5143 157.833 58.3627 158.7 58.3627 159.727C58.3627 160.755 58.5143 161.621 58.8173 162.327C59.1251 163.032 59.5559 163.567 60.1099 163.932C60.6639 164.296 61.3126 164.479 62.0559 164.479C62.7993 164.479 63.448 164.296 64.002 163.932C64.5559 163.567 64.9844 163.032 65.2875 162.327C65.5952 161.621 65.7491 160.755 65.7491 159.727ZM71.0882 167V156.091H74.0215V157.994H74.1351C74.334 157.317 74.6678 156.806 75.1365 156.46C75.6053 156.11 76.1451 155.935 76.7559 155.935C76.9074 155.935 77.0707 155.944 77.2459 155.963C77.4211 155.982 77.575 156.008 77.7076 156.041V158.726C77.5655 158.683 77.369 158.645 77.1181 158.612C76.8671 158.579 76.6375 158.562 76.4292 158.562C75.9841 158.562 75.5864 158.66 75.236 158.854C74.8903 159.043 74.6157 159.308 74.4121 159.649C74.2132 159.99 74.1138 160.383 74.1138 160.828V167H71.0882ZM82.7839 167.178C81.9553 167.178 81.2048 166.964 80.5325 166.538C79.8649 166.107 79.3346 165.475 78.9416 164.642C78.5533 163.804 78.3592 162.777 78.3592 161.56C78.3592 160.31 78.5604 159.27 78.9629 158.442C79.3654 157.608 79.9004 156.986 80.568 156.574C81.2404 156.157 81.9766 155.949 82.7768 155.949C83.3876 155.949 83.8966 156.053 84.3038 156.261C84.7157 156.465 85.0472 156.721 85.2981 157.028C85.5538 157.331 85.7479 157.63 85.8805 157.923H85.9728V152.455H88.9913V167H86.0083V165.253H85.8805C85.7385 165.556 85.5372 165.857 85.2768 166.155C85.0211 166.448 84.6873 166.692 84.2754 166.886C83.8682 167.08 83.371 167.178 82.7839 167.178ZM83.7427 164.77C84.2304 164.77 84.6423 164.637 84.9785 164.372C85.3194 164.102 85.5798 163.726 85.7598 163.243C85.9444 162.76 86.0368 162.194 86.0368 161.545C86.0368 160.897 85.9468 160.333 85.7669 159.855C85.5869 159.377 85.3265 159.008 84.9856 158.747C84.6447 158.487 84.2304 158.357 83.7427 158.357C83.2456 158.357 82.8265 158.491 82.4856 158.761C82.1447 159.031 81.8867 159.405 81.7115 159.884C81.5363 160.362 81.4487 160.916 81.4487 161.545C81.4487 162.18 81.5363 162.741 81.7115 163.229C81.8914 163.712 82.1494 164.09 82.4856 164.365C82.8265 164.635 83.2456 164.77 83.7427 164.77ZM96.4505 167.213C95.3283 167.213 94.3624 166.986 93.5527 166.531C92.7478 166.072 92.1275 165.423 91.6919 164.585C91.2563 163.742 91.0385 162.746 91.0385 161.595C91.0385 160.473 91.2563 159.488 91.6919 158.641C92.1275 157.793 92.7407 157.133 93.5314 156.659C94.3269 156.186 95.2596 155.949 96.3297 155.949C97.0494 155.949 97.7194 156.065 98.3397 156.297C98.9647 156.524 99.5092 156.867 99.9732 157.327C100.442 157.786 100.807 158.364 101.067 159.06C101.327 159.751 101.458 160.561 101.458 161.489V162.32H92.2459V160.445H98.6096C98.6096 160.009 98.5149 159.623 98.3255 159.287C98.1361 158.951 97.8733 158.688 97.5371 158.499C97.2057 158.304 96.8198 158.207 96.3794 158.207C95.9202 158.207 95.513 158.314 95.1578 158.527C94.8075 158.735 94.5328 159.017 94.334 159.372C94.1351 159.723 94.0333 160.113 94.0286 160.544V162.327C94.0286 162.866 94.128 163.333 94.3269 163.726C94.5305 164.119 94.8169 164.422 95.1863 164.635C95.5556 164.848 95.9935 164.955 96.5002 164.955C96.8364 164.955 97.1441 164.907 97.4235 164.812C97.7028 164.718 97.9419 164.576 98.1408 164.386C98.3397 164.197 98.4912 163.965 98.5953 163.69L101.394 163.875C101.252 164.547 100.96 165.134 100.52 165.636C100.084 166.134 99.521 166.522 98.8297 166.801C98.1432 167.076 97.3501 167.213 96.4505 167.213ZM103.432 167V156.091H106.316V158.016H106.443C106.671 157.376 107.049 156.872 107.58 156.503C108.11 156.134 108.744 155.949 109.483 155.949C110.231 155.949 110.868 156.136 111.394 156.51C111.919 156.879 112.27 157.381 112.445 158.016H112.558C112.781 157.391 113.183 156.891 113.766 156.517C114.353 156.138 115.047 155.949 115.847 155.949C116.865 155.949 117.691 156.273 118.325 156.922C118.965 157.566 119.284 158.48 119.284 159.663V167H116.266V160.26C116.266 159.654 116.105 159.199 115.783 158.896C115.461 158.593 115.058 158.442 114.575 158.442C114.026 158.442 113.598 158.617 113.29 158.967C112.982 159.313 112.828 159.77 112.828 160.338V167H109.895V160.196C109.895 159.661 109.741 159.235 109.433 158.918C109.13 158.6 108.73 158.442 108.233 158.442C107.897 158.442 107.594 158.527 107.324 158.697C107.059 158.863 106.848 159.098 106.692 159.401C106.536 159.699 106.458 160.049 106.458 160.452V167H103.432ZM130.323 167.178C129.494 167.178 128.744 166.964 128.072 166.538C127.404 166.107 126.874 165.475 126.481 164.642C126.092 163.804 125.898 162.777 125.898 161.56C125.898 160.31 126.099 159.27 126.502 158.442C126.904 157.608 127.439 156.986 128.107 156.574C128.779 156.157 129.516 155.949 130.316 155.949C130.927 155.949 131.436 156.053 131.843 156.261C132.255 156.465 132.586 156.721 132.837 157.028C133.093 157.331 133.287 157.63 133.42 157.923H133.512V152.455H136.53V167H133.547V165.253H133.42C133.278 165.556 133.076 165.857 132.816 166.155C132.56 166.448 132.226 166.692 131.814 166.886C131.407 167.08 130.91 167.178 130.323 167.178ZM131.282 164.77C131.769 164.77 132.181 164.637 132.518 164.372C132.858 164.102 133.119 163.726 133.299 163.243C133.483 162.76 133.576 162.194 133.576 161.545C133.576 160.897 133.486 160.333 133.306 159.855C133.126 159.377 132.866 159.008 132.525 158.747C132.184 158.487 131.769 158.357 131.282 158.357C130.785 158.357 130.366 158.491 130.025 158.761C129.684 159.031 129.426 159.405 129.251 159.884C129.075 160.362 128.988 160.916 128.988 161.545C128.988 162.18 129.075 162.741 129.251 163.229C129.43 163.712 129.689 164.09 130.025 164.365C130.366 164.635 130.785 164.77 131.282 164.77ZM143.99 167.213C142.867 167.213 141.901 166.986 141.092 166.531C140.287 166.072 139.667 165.423 139.231 164.585C138.795 163.742 138.578 162.746 138.578 161.595C138.578 160.473 138.795 159.488 139.231 158.641C139.667 157.793 140.28 157.133 141.07 156.659C141.866 156.186 142.799 155.949 143.869 155.949C144.588 155.949 145.258 156.065 145.879 156.297C146.504 156.524 147.048 156.867 147.512 157.327C147.981 157.786 148.346 158.364 148.606 159.06C148.866 159.751 148.997 160.561 148.997 161.489V162.32H139.785V160.445H146.149C146.149 160.009 146.054 159.623 145.865 159.287C145.675 158.951 145.412 158.688 145.076 158.499C144.745 158.304 144.359 158.207 143.919 158.207C143.459 158.207 143.052 158.314 142.697 158.527C142.347 158.735 142.072 159.017 141.873 159.372C141.674 159.723 141.572 160.113 141.568 160.544V162.327C141.568 162.866 141.667 163.333 141.866 163.726C142.07 164.119 142.356 164.422 142.725 164.635C143.095 164.848 143.533 164.955 144.039 164.955C144.375 164.955 144.683 164.907 144.963 164.812C145.242 164.718 145.481 164.576 145.68 164.386C145.879 164.197 146.03 163.965 146.134 163.69L148.933 163.875C148.791 164.547 148.499 165.134 148.059 165.636C147.624 166.134 147.06 166.522 146.369 166.801C145.682 167.076 144.889 167.213 143.99 167.213ZM73.7818 180.638C73.725 180.065 73.4811 179.62 73.0502 179.303C72.6194 178.985 72.0346 178.827 71.296 178.827C70.7941 178.827 70.3703 178.898 70.0247 179.04C69.679 179.177 69.4139 179.369 69.2292 179.615C69.0493 179.861 68.9593 180.141 68.9593 180.453C68.9499 180.714 69.0043 180.941 69.1227 181.135C69.2458 181.329 69.4139 181.497 69.627 181.639C69.84 181.777 70.0862 181.897 70.3656 182.001C70.6449 182.101 70.9432 182.186 71.2605 182.257L72.5673 182.57C73.2018 182.712 73.7842 182.901 74.3145 183.138C74.8448 183.375 75.304 183.666 75.6923 184.011C76.0806 184.357 76.3812 184.764 76.5943 185.233C76.8121 185.702 76.9234 186.239 76.9281 186.845C76.9234 187.735 76.6961 188.507 76.2463 189.161C75.8012 189.809 75.1573 190.313 74.3145 190.673C73.4764 191.028 72.4655 191.206 71.2818 191.206C70.1075 191.206 69.0848 191.026 68.2136 190.666C67.3471 190.306 66.67 189.774 66.1824 189.068C65.6994 188.358 65.4461 187.48 65.4224 186.433H68.3983C68.4314 186.921 68.5711 187.328 68.8173 187.655C69.0682 187.977 69.402 188.221 69.8187 188.386C70.2401 188.547 70.716 188.628 71.2463 188.628C71.7671 188.628 72.2193 188.552 72.6028 188.401C72.9911 188.249 73.2917 188.038 73.5048 187.768C73.7179 187.499 73.8244 187.188 73.8244 186.838C73.8244 186.511 73.7273 186.237 73.5332 186.014C73.3438 185.792 73.0645 185.602 72.6951 185.446C72.3306 185.29 71.8831 185.148 71.3528 185.02L69.769 184.622C68.5427 184.324 67.5744 183.857 66.8642 183.223C66.1539 182.589 65.8012 181.734 65.8059 180.659C65.8012 179.778 66.0356 179.009 66.5091 178.351C66.9873 177.693 67.6431 177.179 68.4764 176.81C69.3097 176.44 70.2567 176.256 71.3173 176.256C72.3968 176.256 73.3391 176.44 74.144 176.81C74.9537 177.179 75.5834 177.693 76.0332 178.351C76.483 179.009 76.715 179.771 76.7292 180.638H73.7818ZM83.9114 191.213C82.7892 191.213 81.8233 190.986 81.0137 190.531C80.2087 190.072 79.5885 189.423 79.1529 188.585C78.7173 187.742 78.4995 186.746 78.4995 185.595C78.4995 184.473 78.7173 183.488 79.1529 182.641C79.5885 181.793 80.2016 181.133 80.9924 180.659C81.7878 180.186 82.7206 179.949 83.7907 179.949C84.5104 179.949 85.1803 180.065 85.8006 180.297C86.4256 180.524 86.9701 180.867 87.4341 181.327C87.9029 181.786 88.2675 182.364 88.5279 183.06C88.7883 183.751 88.9185 184.561 88.9185 185.489V186.32H79.7069V184.445H86.0705C86.0705 184.009 85.9758 183.623 85.7864 183.287C85.597 182.951 85.3342 182.688 84.998 182.499C84.6666 182.304 84.2807 182.207 83.8404 182.207C83.3811 182.207 82.9739 182.314 82.6188 182.527C82.2684 182.735 81.9938 183.017 81.7949 183.372C81.5961 183.723 81.4943 184.113 81.4895 184.544V186.327C81.4895 186.866 81.589 187.333 81.7878 187.726C81.9914 188.119 82.2779 188.422 82.6472 188.635C83.0165 188.848 83.4545 188.955 83.9611 188.955C84.2973 188.955 84.6051 188.907 84.8844 188.812C85.1638 188.718 85.4029 188.576 85.6017 188.386C85.8006 188.197 85.9521 187.965 86.0563 187.69L88.8546 187.875C88.7125 188.547 88.4213 189.134 87.981 189.636C87.5454 190.134 86.9819 190.522 86.2907 190.801C85.6041 191.076 84.811 191.213 83.9114 191.213ZM90.8929 191V180.091H93.8262V181.994H93.9398C94.1387 181.317 94.4725 180.806 94.9412 180.46C95.41 180.11 95.9498 179.935 96.5605 179.935C96.7121 179.935 96.8754 179.944 97.0506 179.963C97.2258 179.982 97.3797 180.008 97.5123 180.041V182.726C97.3702 182.683 97.1737 182.645 96.9228 182.612C96.6718 182.579 96.4422 182.562 96.2338 182.562C95.7888 182.562 95.391 182.66 95.0407 182.854C94.695 183.043 94.4204 183.308 94.2168 183.649C94.0179 183.99 93.9185 184.383 93.9185 184.828V191H90.8929ZM109.579 180.091L105.765 191H102.356L98.5421 180.091H101.738L104.004 187.896H104.117L106.376 180.091H109.579ZM111.127 191V180.091H114.153V191H111.127ZM112.647 178.685C112.197 178.685 111.811 178.536 111.49 178.237C111.172 177.934 111.014 177.572 111.014 177.151C111.014 176.734 111.172 176.376 111.49 176.078C111.811 175.775 112.197 175.624 112.647 175.624C113.097 175.624 113.481 175.775 113.798 176.078C114.12 176.376 114.281 176.734 114.281 177.151C114.281 177.572 114.12 177.934 113.798 178.237C113.481 178.536 113.097 178.685 112.647 178.685ZM121.506 191.213C120.388 191.213 119.427 190.976 118.622 190.503C117.822 190.025 117.206 189.362 116.775 188.514C116.349 187.667 116.136 186.691 116.136 185.588C116.136 184.471 116.352 183.491 116.782 182.648C117.218 181.8 117.836 181.14 118.636 180.666C119.436 180.188 120.388 179.949 121.491 179.949C122.443 179.949 123.276 180.122 123.991 180.467C124.706 180.813 125.272 181.298 125.689 181.923C126.105 182.548 126.335 183.282 126.378 184.125H123.523C123.442 183.58 123.229 183.143 122.883 182.811C122.542 182.475 122.095 182.307 121.541 182.307C121.072 182.307 120.663 182.435 120.312 182.69C119.967 182.941 119.697 183.308 119.503 183.791C119.309 184.274 119.211 184.859 119.211 185.545C119.211 186.241 119.306 186.833 119.496 187.321C119.69 187.809 119.962 188.18 120.312 188.436C120.663 188.692 121.072 188.82 121.541 188.82C121.887 188.82 122.197 188.749 122.471 188.607C122.751 188.464 122.98 188.259 123.16 187.989C123.345 187.714 123.466 187.385 123.523 187.001H126.378C126.33 187.835 126.103 188.569 125.696 189.203C125.293 189.833 124.737 190.325 124.027 190.68C123.317 191.036 122.476 191.213 121.506 191.213ZM120.795 190.943H122.187L122.074 191.561C122.561 191.637 122.959 191.819 123.267 192.108C123.579 192.397 123.738 192.79 123.743 193.287C123.747 193.992 123.421 194.554 122.763 194.97C122.104 195.392 121.181 195.602 119.993 195.602L119.964 194.253C120.561 194.253 121.027 194.179 121.363 194.033C121.704 193.891 121.882 193.668 121.896 193.365C121.906 193.076 121.794 192.856 121.562 192.705C121.33 192.553 120.968 192.446 120.476 192.385L120.795 190.943ZM133.244 191.213C132.141 191.213 131.186 190.979 130.382 190.51C129.581 190.036 128.963 189.378 128.528 188.536C128.092 187.688 127.874 186.705 127.874 185.588C127.874 184.461 128.092 183.476 128.528 182.634C128.963 181.786 129.581 181.128 130.382 180.659C131.186 180.186 132.141 179.949 133.244 179.949C134.347 179.949 135.299 180.186 136.099 180.659C136.904 181.128 137.524 181.786 137.96 182.634C138.395 183.476 138.613 184.461 138.613 185.588C138.613 186.705 138.395 187.688 137.96 188.536C137.524 189.378 136.904 190.036 136.099 190.51C135.299 190.979 134.347 191.213 133.244 191.213ZM133.258 188.869C133.76 188.869 134.179 188.727 134.515 188.443C134.851 188.154 135.105 187.761 135.275 187.264C135.45 186.767 135.538 186.201 135.538 185.567C135.538 184.932 135.45 184.366 135.275 183.869C135.105 183.372 134.851 182.979 134.515 182.69C134.179 182.402 133.76 182.257 133.258 182.257C132.751 182.257 132.325 182.402 131.98 182.69C131.639 182.979 131.381 183.372 131.205 183.869C131.035 184.366 130.95 184.932 130.95 185.567C130.95 186.201 131.035 186.767 131.205 187.264C131.381 187.761 131.639 188.154 131.98 188.443C132.325 188.727 132.751 188.869 133.258 188.869Z" fill="#3E668A"/>
</svg>
